<svg width="111" height="48" viewBox="0 0 111 48" fill="none" xmlns="http://www.w3.org/2000/svg">
<path fill-rule="evenodd" clip-rule="evenodd" d="M84.2798 1.04798C83.72 1.89578 83.552 3.51938 83.8344 5.34458C84.0846 6.95738 84.2677 9.99848 84.2412 12.1027C84.2155 14.206 84.4557 15.9277 84.7753 15.9277C85.6584 15.9277 85.7098 8.60978 84.8468 5.80178C84.277 3.94868 84.3134 2.98118 84.9898 1.95518C85.4868 1.20098 85.7327 0.381983 85.5361 0.134483C85.3395 -0.113017 84.7739 0.297383 84.2798 1.04798ZM100.133 5.30768C99.6609 5.90168 99.2727 6.81338 99.2705 7.33268C99.2684 7.85198 98.9316 9.79688 98.5219 11.6527C97.995 14.0413 97.3801 15.0277 96.4177 15.0277C95.6691 15.0277 94.1168 16.294 92.9671 17.8429L90.8772 20.6572L89.3563 18.7429C87.5853 16.5136 82.4666 16.0969 80.386 18.0121C79.2169 19.0885 79.179 19.687 79.9691 24.5371C80.4482 27.4747 81.166 30.3844 81.565 31.0027C82.7884 32.9017 86.8131 32.3779 87.9785 30.1684C89.0096 28.2145 89.0196 28.219 91.9983 31.9684C93.6406 34.0357 95.3531 35.7277 95.8035 35.7277C96.3819 35.7277 96.4963 37.6159 96.1932 42.1672C95.88 46.8688 95.978 48.3376 96.555 47.6113C96.989 47.065 97.3772 44.0905 97.4158 41.0017L97.4873 35.3866L94.4486 32.7973C92.7769 31.3735 91.4098 29.8075 91.4098 29.317C91.4098 28.8265 92.1248 29.056 92.9993 29.8264C94.9784 31.5715 95.3252 31.5706 96.7216 29.8138C99.3049 26.5612 97.2943 17.6413 94.6102 20.4457C93.0522 22.0729 92.6797 21.1153 93.9695 18.7987C95.6398 15.7963 97.4802 16.33 98.8072 20.2027L99.9634 23.5777L99.5923 19.4467C99.1933 15.0043 99.8962 7.40828 100.621 8.32538C100.864 8.63228 101.082 9.96248 101.107 11.281C101.276 20.3548 101.497 23.1277 102.053 23.1277C102.4 23.1277 102.905 21.001 103.173 18.4027C103.441 15.8035 104.118 12.4627 104.676 10.9777C105.69 8.27948 105.691 8.28128 105.291 12.3277C105.071 14.5552 104.731 17.0869 104.537 17.9527C104.343 18.8185 104.527 19.5277 104.947 19.5277C105.367 19.5277 105.717 19.0219 105.726 18.4027C105.749 16.7233 108.539 9.28928 108.952 9.80858C109.148 10.0552 108.815 13.0513 108.212 16.4677C105.733 30.5257 103.565 44.0095 103.565 45.3739C103.565 48.8434 104.675 44.8915 106.091 36.3757C106.932 31.3168 108.39 22.6444 109.328 17.104C110.267 11.5636 110.804 6.73958 110.522 6.38498C110.239 6.02948 109.363 6.47408 108.574 7.37228C107.179 8.96168 107.14 8.95178 107.14 6.99248C107.14 4.08278 105.688 5.10788 103.97 9.23258L102.492 12.7777L102.266 9.17768C102.003 4.99448 101.339 3.78938 100.133 5.30768ZM81.8102 10.7527C82.0541 16.8205 82.1391 17.0203 82.8606 13.2277C83.4762 9.99128 83.0837 6.02768 82.1477 6.02768C81.8581 6.02768 81.7058 8.15348 81.8102 10.7527ZM86.4048 12.3277C86.4048 14.3077 86.6579 15.9277 86.9682 15.9277C87.2778 15.9277 87.5824 14.3077 87.6453 12.3277C87.7076 10.3477 87.4545 8.72768 87.0819 8.72768C86.7094 8.72768 86.4048 10.3477 86.4048 12.3277ZM88.2216 19.588C88.9817 21.1351 87.9242 21.7777 84.6173 21.7777C81.3104 21.7777 80.253 21.1351 81.013 19.588C81.6258 18.3388 87.6089 18.3388 88.2216 19.588ZM96.4148 24.8746C96.4148 28.8067 95.3538 30.2926 93.8916 28.4089C93.0936 27.3811 93.0987 26.6944 93.9259 24.2527C95.2694 20.2837 96.4148 20.5699 96.4148 24.8746ZM91.605 23.9692C91.8252 25.0294 91.5378 25.9186 90.8707 26.2408C89.4007 26.9509 89.0396 26.3389 89.6052 24.0952C90.1965 21.7507 91.1317 21.6913 91.605 23.9692ZM87.6382 26.8933C86.4856 32.6092 82.7362 32.5471 81.5764 26.7943L80.8879 23.3806L84.6037 23.4481L88.3196 23.5156L87.6382 26.8933ZM0.604828 36.112C0.604828 45.0193 0.769277 46.5277 1.7381 46.5277C2.68119 46.5277 2.83134 45.544 2.63185 40.6759C2.50029 37.4575 2.60754 34.825 2.86995 34.8259C3.13307 34.8268 4.04398 37.4602 4.89483 40.6777C5.82933 44.2129 6.84249 46.5277 7.45596 46.5277C8.2732 46.5277 8.46983 44.5027 8.46983 36.103C8.46983 28.165 8.25676 25.7665 7.57608 26.0482C7.0384 26.2705 6.54004 28.7203 6.32483 32.1979L5.96733 37.9777L4.51802 32.1349C3.55778 28.2631 2.6533 26.1922 1.83677 25.9942C0.727808 25.726 0.604828 26.7385 0.604828 36.112ZM12.0448 36.2245V46.6222L15.6291 46.3495C19.8612 46.0282 20.7214 44.3992 16.8711 43.9987C14.3357 43.7341 14.1898 43.5505 14.1898 40.6237C14.1898 37.7833 14.3671 37.5277 16.3348 37.5277C17.7648 37.5277 18.4798 37.0777 18.4798 36.1777C18.4798 35.2777 17.7648 34.8277 16.3348 34.8277C14.36 34.8277 14.1898 34.5775 14.1898 31.6777C14.1898 28.678 14.3092 28.5277 16.6923 28.5277C18.4398 28.5277 19.1948 28.1209 19.1948 27.1777C19.1948 26.158 18.3211 25.8277 15.6198 25.8277H12.0448V36.2245ZM22.0999 29.2027C22.1242 31.0594 22.5267 35.6152 22.9936 39.3277C23.7294 45.1804 24.0497 46.1146 25.401 46.3567C26.7681 46.6024 27.0141 46.1056 27.4059 42.3067C28.1173 35.4163 28.4848 33.8179 29.2256 34.3939C29.6074 34.6909 29.952 36.4288 29.9913 38.2558C30.1043 43.5316 30.8994 46.0777 32.4345 46.0777C33.9546 46.0777 34.3564 44.1292 35.2845 32.2438C35.7063 26.8366 35.622 25.6846 34.8276 26.014C34.2027 26.2723 33.5921 28.9777 33.128 33.5479C32.3222 41.4751 31.7788 41.4787 31.0159 33.5614C30.3932 27.0985 30.0371 25.8277 28.848 25.8277C27.8256 25.8277 27.3716 27.6412 26.6501 34.6027C26.3806 37.2019 25.918 39.3277 25.622 39.3277C25.3252 39.3277 24.8569 36.2902 24.5802 32.5777C24.2141 27.6565 23.8037 25.8277 23.0666 25.8277C22.3659 25.8277 22.0684 26.8663 22.0999 29.2027ZM46.8331 27.4738C45.1815 29.7706 45.1365 43.0528 46.7731 45.1138C49.3492 48.3556 54.2298 45.616 54.2298 40.927C54.2298 38.5006 52.3022 39.0154 51.791 41.5777C51.2068 44.5081 48.6986 44.6368 48.1259 41.7649C47.8999 40.6309 47.8134 37.2892 47.9335 34.3399C48.1273 29.5906 48.3332 28.9453 49.736 28.6942C50.9358 28.4791 51.4327 28.9786 51.7874 30.7588C52.2965 33.313 53.7265 33.376 54.114 30.8614C54.7482 26.7394 49.2127 24.1636 46.8331 27.4738ZM57.0441 26.428C56.7402 31.4131 57.3572 44.4982 57.9378 45.3793C58.9896 46.9741 62.4781 46.8166 63.8316 45.1138C65.421 43.1122 65.4896 25.8277 63.9081 25.8277C63.0751 25.8277 62.8198 27.6169 62.6568 34.6027C62.4681 42.6919 62.3408 43.3777 61.0223 43.3777C59.7189 43.3777 59.5609 42.628 59.2348 34.8997C58.9967 29.254 58.5785 26.2966 57.9836 26.0491C57.4924 25.8448 57.0691 26.0149 57.0441 26.428ZM68.5298 36.2524C68.5298 44.1904 68.7429 46.5898 69.4236 46.3081C69.9155 46.1047 70.4131 44.3263 70.5304 42.3571C70.7184 39.1954 71.0123 38.6761 73.0329 37.9264C75.1514 37.1407 75.3388 36.7537 75.5425 32.7325C75.815 27.3577 74.8755 25.8277 71.3026 25.8277H68.5298V36.2524ZM73.4726 30.1819C74.4715 32.5309 73.6349 35.7277 72.0212 35.7277C70.9272 35.7277 70.6748 35.0536 70.6748 32.1277C70.6748 28.2001 72.1842 27.1507 73.4726 30.1819ZM37.566 44.4028C36.6129 45.6025 37.9714 46.5277 40.687 46.5277C42.7147 46.5277 43.5048 46.1497 43.5048 45.1777C43.5048 44.2129 42.7233 43.8277 40.7642 43.8277C39.2563 43.8277 37.8177 44.0869 37.566 44.4028ZM77.8248 45.1777C77.8248 46.1776 78.6592 46.5277 81.0423 46.5277C83.4254 46.5277 84.2598 46.1776 84.2598 45.1777C84.2598 44.1778 83.4254 43.8277 81.0423 43.8277C78.6592 43.8277 77.8248 44.1778 77.8248 45.1777Z" fill="black"/>
</svg>
